<?xml version="1.0" standalone="no"?><!DOCTYPE svg PUBLIC "-//W3C//DTD SVG 1.1//EN" "http://www.w3.org/Graphics/SVG/1.1/DTD/svg11.dtd"><svg t="1726112038037" class="icon" viewBox="0 0 1024 1024" version="1.1" xmlns="http://www.w3.org/2000/svg" p-id="2529" xmlns:xlink="http://www.w3.org/1999/xlink" width="200" height="200"><path d="M733.482667 170.666667a64 64 0 0 1 57.216 35.370666l55.893333 111.658667a64 64 0 0 1 6.741333 28.672V554.666667h-64V384h-554.666666v405.333333H554.666667V853.333333H234.666667A64 64 0 0 1 170.666667 789.333333V351.573333a64 64 0 0 1 6.4-27.861333l56.448-116.906667A64 64 0 0 1 291.114667 170.666667h442.368zM699.733333 597.333333a102.4 102.4 0 0 1 88.490667 153.941334l61.44 61.44-36.224 36.224-61.269333-61.226667A102.4 102.4 0 1 1 699.733333 597.333333z m0 64a38.4 38.4 0 1 0 0 76.8 38.4 38.4 0 0 0 0-76.8z m-230.4-213.333333V512H298.666667v-64h170.666666z m-178.176-213.333333l-41.258666 85.333333h526.250666l-42.666666-85.333333H291.157333z" p-id="2530"></path></svg>